<svg width="24" height="24" viewBox="0 0 24 24" fill="none" xmlns="http://www.w3.org/2000/svg">
<path d="M19.7222 2H7.50001C5.66224 2 4.16668 3.49556 4.16668 5.33333V6.44444H3.05557C2.44112 6.44444 1.94446 6.94222 1.94446 7.55556C1.94446 8.16889 2.44112 8.66667 3.05557 8.66667H4.16668V10.8889H3.05557C2.44112 10.8889 1.94446 11.3867 1.94446 12C1.94446 12.6133 2.44112 13.1111 3.05557 13.1111H4.16668V15.3333H3.05557C2.44112 15.3333 1.94446 15.8311 1.94446 16.4444C1.94446 17.0578 2.44112 17.5556 3.05557 17.5556H4.16668V18.6667C4.16668 20.5044 5.66224 22 7.50001 22H19.7222C21.56 22 23.0556 20.5044 23.0556 18.6667V5.33333C23.0556 3.49556 21.56 2 19.7222 2ZM6.3889 5.33333C6.3889 4.72111 6.88779 4.22222 7.50001 4.22222V6.44444H6.3889V5.33333ZM6.3889 8.66667H7.50001V10.8889H6.3889V8.66667ZM6.3889 13.1111H7.50001V15.3333H6.3889V13.1111ZM6.3889 18.6667V17.5556H7.50001V19.7778C6.88779 19.7778 6.3889 19.2789 6.3889 18.6667ZM20.8333 18.6667C20.8333 19.2789 20.3345 19.7778 19.7222 19.7778H8.61112V4.22222H19.7222C20.3345 4.22222 20.8333 4.72111 20.8333 5.33333V18.6667Z" fill="#1C1C28"/>
<g clip-path="url(#clip0_1109_2108)">
<path d="M11 11.0001L14 8.66675L17 11.0001V14.6667C17 14.8436 16.9298 15.0131 16.8047 15.1382C16.6797 15.2632 16.5101 15.3334 16.3333 15.3334H11.6667C11.4899 15.3334 11.3203 15.2632 11.1953 15.1382C11.0702 15.0131 11 14.8436 11 14.6667V11.0001Z" stroke="#1C1C28" stroke-linecap="round" stroke-linejoin="round"/>
<path d="M13 15.3333V12H15V15.3333" stroke="#1C1C28" stroke-linecap="round" stroke-linejoin="round"/>
</g>
<defs>
<clipPath id="clip0_1109_2108">
<rect width="8" height="8" fill="white" transform="translate(10 8)"/>
</clipPath>
</defs>
</svg>
