<svg width="32" height="24" viewBox="0 0 32 24" fill="none" xmlns="http://www.w3.org/2000/svg">
<g clip-path="url(#clip0_910_4106)">
<path d="M0 2.0249H32.2674V22H0V2.0249Z" fill="#79A73A"/>
<path d="M3.073 8.71658C4.81141 8.19646 6.17144 6.83643 6.69156 5.09802H25.5757C26.0957 6.83653 27.4557 8.19656 29.1942 8.71658V15.3084C27.4557 15.8284 26.0957 17.1884 25.5757 18.9269H6.91436H6.69079C6.17086 17.1887 4.81112 15.8287 3.073 15.3084V8.71658Z" fill="#AAC16B"/>
<path d="M16.1336 15.8539C18.2551 15.8539 19.975 14.134 19.975 12.0125C19.975 9.89098 18.2551 8.17114 16.1336 8.17114C14.0121 8.17114 12.2922 9.89098 12.2922 12.0125C12.2922 14.134 14.0121 15.8539 16.1336 15.8539Z" fill="#79A73A"/>
<path d="M7.68282 12.7808C8.10713 12.7808 8.4511 12.4368 8.4511 12.0125C8.4511 11.5882 8.10713 11.2443 7.68282 11.2443C7.25852 11.2443 6.91455 11.5882 6.91455 12.0125C6.91455 12.4368 7.25852 12.7808 7.68282 12.7808Z" fill="#79A73A"/>
<path d="M24.5848 12.7808C25.0091 12.7808 25.3531 12.4368 25.3531 12.0125C25.3531 11.5882 25.0091 11.2443 24.5848 11.2443C24.1605 11.2443 23.8165 11.5882 23.8165 12.0125C23.8165 12.4368 24.1605 12.7808 24.5848 12.7808Z" fill="#79A73A"/>
</g>
<defs>
<clipPath id="clip0_910_4106">
<rect width="32" height="24" fill="white"/>
</clipPath>
</defs>
</svg>
