<svg width="16" height="16" viewBox="0 0 16 16" fill="none" xmlns="http://www.w3.org/2000/svg">
<g clip-path="url(#clip0_302_10460)">
<path d="M8.00001 10.6666C7.84424 10.667 7.69328 10.6127 7.57334 10.5133L3.57334 7.17998C3.43719 7.06682 3.35158 6.90421 3.33533 6.72793C3.31907 6.55165 3.37351 6.37612 3.48667 6.23998C3.59983 6.10384 3.76244 6.01822 3.93872 6.00197C4.11501 5.98571 4.29053 6.04015 4.42667 6.15331L8.00001 9.13998L11.5733 6.25998C11.6415 6.2046 11.72 6.16325 11.8042 6.13829C11.8884 6.11334 11.9768 6.10528 12.0641 6.11457C12.1515 6.12386 12.2361 6.15033 12.3132 6.19244C12.3903 6.23456 12.4583 6.2915 12.5133 6.35998C12.5744 6.42853 12.6206 6.50895 12.6492 6.59619C12.6777 6.68344 12.6879 6.77564 12.6791 6.86702C12.6704 6.9584 12.6428 7.04698 12.5982 7.12721C12.5537 7.20745 12.493 7.27762 12.42 7.33331L8.42001 10.5533C8.29662 10.637 8.14874 10.6769 8.00001 10.6666Z" fill="white"/>
</g>
<defs>
<clipPath id="clip0_302_10460">
<rect width="16" height="16" fill="white"/>
</clipPath>
</defs>
</svg>
