<svg width="25" height="24" viewBox="0 0 25 24" fill="none" xmlns="http://www.w3.org/2000/svg">
<g clip-path="url(#clip0_967_3459)">
<path d="M12.5001 21C12.3685 21.0008 12.238 20.9756 12.1162 20.9258C11.9944 20.876 11.8836 20.8027 11.7901 20.71L4.02012 12.93C3.04548 11.9452 2.49878 10.6156 2.49878 9.23002C2.49878 7.84445 3.04548 6.51484 4.02012 5.53002C5.00238 4.55053 6.33295 4.00049 7.72012 4.00049C9.10729 4.00049 10.4379 4.55053 11.4201 5.53002L12.5001 6.61002L13.5801 5.53002C14.5624 4.55053 15.8929 4.00049 17.2801 4.00049C18.6673 4.00049 19.9979 4.55053 20.9801 5.53002C21.9548 6.51484 22.5015 7.84445 22.5015 9.23002C22.5015 10.6156 21.9548 11.9452 20.9801 12.93L13.2101 20.71C13.1167 20.8027 13.0059 20.876 12.884 20.9258C12.7622 20.9756 12.6317 21.0008 12.5001 21Z" fill="#6440FE"/>
</g>
<defs>
<clipPath id="clip0_967_3459">
<rect width="24" height="24" fill="white" transform="translate(0.5)"/>
</clipPath>
</defs>
</svg>
