<svg width="25" height="24" viewBox="0 0 25 24" fill="none" xmlns="http://www.w3.org/2000/svg">
<g clip-path="url(#clip0_967_3740)">
<path d="M12.5001 21C12.3685 21.0008 12.238 20.9756 12.1162 20.9258C11.9944 20.876 11.8836 20.8027 11.7901 20.71L4.02012 12.93C3.04548 11.9452 2.49878 10.6156 2.49878 9.23002C2.49878 7.84445 3.04548 6.51484 4.02012 5.53002C5.00238 4.55053 6.33295 4.00049 7.72012 4.00049C9.10729 4.00049 10.4379 4.55053 11.4201 5.53002L12.5001 6.61002L13.5801 5.53002C14.5624 4.55053 15.8929 4.00049 17.2801 4.00049C18.6673 4.00049 19.9979 4.55053 20.9801 5.53002C21.9548 6.51484 22.5015 7.84445 22.5015 9.23002C22.5015 10.6156 21.9548 11.9452 20.9801 12.93L13.2101 20.71C13.1167 20.8027 13.0059 20.876 12.884 20.9258C12.7622 20.9756 12.6317 21.0008 12.5001 21ZM7.72012 6.00002C7.29679 5.9981 6.8773 6.0802 6.48592 6.24155C6.09455 6.40291 5.73909 6.64031 5.44012 6.94002C4.83618 7.54714 4.49715 8.36866 4.49715 9.22502C4.49715 10.0814 4.83618 10.9029 5.44012 11.51L12.5001 18.58L19.5601 11.51C20.1641 10.9029 20.5031 10.0814 20.5031 9.22502C20.5031 8.36866 20.1641 7.54714 19.5601 6.94002C18.9438 6.35773 18.128 6.03331 17.2801 6.03331C16.4322 6.03331 15.6165 6.35773 15.0001 6.94002L13.2101 8.74002C13.1172 8.83375 13.0066 8.90814 12.8847 8.95891C12.7628 9.00968 12.6321 9.03581 12.5001 9.03581C12.3681 9.03581 12.2374 9.00968 12.1155 8.95891C11.9937 8.90814 11.8831 8.83375 11.7901 8.74002L10.0001 6.94002C9.70115 6.64031 9.34568 6.40291 8.95431 6.24155C8.56294 6.0802 8.14344 5.9981 7.72012 6.00002Z" fill="#6440FE"/>
</g>
<defs>
<clipPath id="clip0_967_3740">
<rect width="24" height="24" fill="white" transform="translate(0.5)"/>
</clipPath>
</defs>
</svg>
