<svg width="32" height="24" viewBox="0 0 32 24" fill="none" xmlns="http://www.w3.org/2000/svg">
<g clip-path="url(#clip0_1148_2703)">
<g clip-path="url(#clip1_1148_2703)">
<path d="M25.5567 19.9399L6.44319 19.9399C5.20129 19.9399 4.19455 18.9332 4.19455 17.6913L4.19455 6.30748C4.19455 5.06557 5.20128 4.05884 6.44319 4.05884L25.5567 4.05884C26.7986 4.05884 27.8053 5.06557 27.8053 6.30748L27.8053 17.6912C27.8053 18.9331 26.7986 19.9399 25.5567 19.9399Z" fill="white"/>
<path d="M27.7642 11.9806L27.7642 9.79468L15.3364 9.79468C15.3396 9.74747 15.3418 9.69999 15.3418 9.65199C15.3418 8.49826 14.4032 7.55958 13.2494 7.55958C12.4633 7.55958 11.9715 7.94293 11.6165 8.41618L11.6165 4.04785L9.43062 4.04785L9.43062 8.38384C9.07756 7.92563 8.59062 7.55963 7.82266 7.55963C6.66888 7.55963 5.73021 8.49826 5.73021 9.65204C5.73021 9.70004 5.73241 9.74748 5.7356 9.79468L4.21254 9.79468L4.21254 11.9806L9.43057 11.9806L9.43057 12.1254C8.78459 13.2292 8.01345 14.5351 8.00159 14.5552C7.85988 14.7952 7.93952 15.1046 8.17952 15.2463C8.26006 15.2939 8.34842 15.3165 8.43565 15.3165C8.60829 15.3165 8.77648 15.2278 8.87065 15.0684C8.89652 15.0245 9.12579 14.6363 9.43057 14.1186L9.43057 19.8782L11.6165 19.8782L11.6165 14.085C11.9311 14.6194 12.1698 15.0236 12.1962 15.0684C12.2904 15.2278 12.4585 15.3165 12.6312 15.3165C12.7184 15.3165 12.8068 15.2938 12.8873 15.2463C13.1273 15.1046 13.2069 14.7951 13.0653 14.5552C13.0533 14.5349 12.2664 13.2023 11.6165 12.0916L11.6165 11.9806L27.7642 11.9806ZM13.2494 8.5689C13.8467 8.5689 14.3326 9.0548 14.3326 9.65204C14.3326 9.70041 14.3291 9.74799 14.3229 9.79468L11.9596 9.79468C12.0399 9.65344 12.1151 9.52079 12.18 9.4051C12.5767 8.69823 12.8514 8.5689 13.2494 8.5689ZM6.73943 9.65204C6.73943 9.0548 7.22534 8.5689 7.82262 8.5689C8.22063 8.5689 8.49527 8.69823 8.89202 9.40515C8.95695 9.52083 9.03209 9.65349 9.11243 9.79473L6.74913 9.79473C6.74295 9.74799 6.73943 9.70041 6.73943 9.65204Z" fill="#EAA895"/>
<path d="M16.5281 18.3765L14.9431 18.3765C14.7324 18.3765 14.5614 18.2056 14.5614 17.9948L14.5614 17.5697C14.5614 17.3589 14.7323 17.188 14.9431 17.188L16.5281 17.188C16.7389 17.188 16.9098 17.3589 16.9098 17.5697L16.9098 17.9948C16.9098 18.2056 16.7389 18.3765 16.5281 18.3765Z" fill="#E9C278"/>
<path d="M19.8089 18.3765L18.2239 18.3765C18.0131 18.3765 17.8422 18.2056 17.8422 17.9948L17.8422 17.5697C17.8422 17.3589 18.0131 17.188 18.2239 17.188L19.8088 17.188C20.0196 17.188 20.1905 17.3589 20.1905 17.5697L20.1905 17.9948C20.1906 18.2056 20.0197 18.3765 19.8089 18.3765Z" fill="#E9C278"/>
<path d="M22.2808 18.3764L21.4236 18.3764C21.2575 18.3764 21.1228 18.2417 21.1228 18.0756L21.1228 17.4888C21.1228 17.3227 21.2575 17.188 21.4236 17.188L22.2808 17.188C22.4469 17.188 22.5816 17.3227 22.5816 17.4888L22.5816 18.0756C22.5816 18.2417 22.447 18.3764 22.2808 18.3764Z" fill="#E9C278"/>
<path d="M24.6718 18.3764L23.8146 18.3764C23.6485 18.3764 23.5138 18.2417 23.5138 18.0756L23.5138 17.4888C23.5138 17.3227 23.6485 17.188 23.8146 17.188L24.6718 17.188C24.8379 17.188 24.9726 17.3227 24.9726 17.4888L24.9726 18.0756C24.9726 18.2417 24.8379 18.3764 24.6718 18.3764Z" fill="#E9C278"/>
<path d="M26.8802 5.18871C26.9703 5.18871 27.0433 5.11569 27.0433 5.02563C27.0433 4.93556 26.9703 4.86255 26.8802 4.86255C26.7901 4.86255 26.7171 4.93556 26.7171 5.02563C26.7171 5.11569 26.7901 5.18871 26.8802 5.18871Z" fill="#EAA895"/>
<path d="M27.4258 5.36841C27.3357 5.36841 27.2627 5.44144 27.2627 5.53149C27.2627 5.62153 27.3357 5.69452 27.4258 5.69452C27.5158 5.69452 27.5889 5.62153 27.5889 5.53149C27.5889 5.44144 27.5158 5.36841 27.4258 5.36841Z" fill="#EAA895"/>
<path d="M26.8802 6.23993C26.9703 6.23993 27.0433 6.16694 27.0433 6.07685C27.0433 5.9868 26.9703 5.91382 26.8802 5.91382C26.7902 5.91382 26.7171 5.9868 26.7171 6.07685C26.7172 6.16694 26.7902 6.23993 26.8802 6.23993Z" fill="#EAA895"/>
<path d="M27.4258 6.41968C27.3357 6.41968 27.2627 6.49266 27.2627 6.58271C27.2627 6.67276 27.3357 6.74579 27.4258 6.74579C27.5158 6.74579 27.5889 6.67276 27.5889 6.58271C27.5889 6.49266 27.5158 6.41968 27.4258 6.41968Z" fill="#EAA895"/>
<path d="M26.8802 7.29124C26.9703 7.29124 27.0433 7.21823 27.0433 7.12817C27.0433 7.0381 26.9703 6.96509 26.8802 6.96509C26.7901 6.96509 26.7171 7.0381 26.7171 7.12817C26.7171 7.21823 26.7901 7.29124 26.8802 7.29124Z" fill="#EAA895"/>
<path d="M27.4258 7.47095C27.3357 7.47095 27.2627 7.54393 27.2627 7.63402C27.2627 7.72407 27.3357 7.79706 27.4258 7.79706C27.5158 7.79706 27.5889 7.72407 27.5889 7.63402C27.5889 7.54398 27.5158 7.47095 27.4258 7.47095Z" fill="#EAA895"/>
<path d="M26.8802 8.34247C26.9703 8.34247 27.0433 8.26948 27.0433 8.17943C27.0433 8.08939 26.9703 8.01636 26.8802 8.01636C26.7902 8.01636 26.7171 8.08934 26.7171 8.17943C26.7172 8.26948 26.7902 8.34247 26.8802 8.34247Z" fill="#EAA895"/>
<path d="M27.4258 8.52222C27.3357 8.52222 27.2627 8.5952 27.2627 8.68525C27.2627 8.77529 27.3357 8.84833 27.4258 8.84833C27.5158 8.84833 27.5889 8.77534 27.5889 8.68525C27.5889 8.59515 27.5158 8.52222 27.4258 8.52222Z" fill="#EAA895"/>
<path d="M26.8802 9.39378C26.9703 9.39378 27.0433 9.32077 27.0433 9.23071C27.0433 9.14064 26.9703 9.06763 26.8802 9.06763C26.7901 9.06763 26.7171 9.14064 26.7171 9.23071C26.7171 9.32077 26.7901 9.39378 26.8802 9.39378Z" fill="#EAA895"/>
<path d="M27.5502 9.84086C27.5739 9.81255 27.5889 9.77646 27.5889 9.73656C27.5889 9.64652 27.5158 9.57349 27.4258 9.57349C27.3357 9.57349 27.2627 9.64647 27.2627 9.73656C27.2627 9.77646 27.2776 9.8125 27.3014 9.84086L27.5502 9.84086Z" fill="#EAA895"/>
<path d="M27.2744 11.8987C27.2983 11.9591 27.3569 12.002 27.4258 12.002C27.4948 12.002 27.5534 11.9591 27.5773 11.8987L27.2744 11.8987Z" fill="#EAA895"/>
<path d="M26.8802 12.5475C26.9703 12.5475 27.0433 12.4746 27.0433 12.3845C27.0433 12.2944 26.9703 12.2214 26.8802 12.2214C26.7902 12.2214 26.7171 12.2944 26.7171 12.3845C26.7172 12.4745 26.7902 12.5475 26.8802 12.5475Z" fill="#EAA895"/>
<path d="M27.4258 12.7273C27.3357 12.7273 27.2627 12.8003 27.2627 12.8903C27.2627 12.9804 27.3357 13.0534 27.4258 13.0534C27.5158 13.0534 27.5889 12.9804 27.5889 12.8903C27.5889 12.8003 27.5158 12.7273 27.4258 12.7273Z" fill="#EAA895"/>
<path d="M26.8802 13.5989C26.9703 13.5989 27.0433 13.5258 27.0433 13.4358C27.0433 13.3457 26.9703 13.2727 26.8802 13.2727C26.7901 13.2727 26.7171 13.3457 26.7171 13.4358C26.7171 13.5258 26.7901 13.5989 26.8802 13.5989Z" fill="#EAA895"/>
<path d="M27.4258 13.7786C27.3357 13.7786 27.2627 13.8515 27.2627 13.9416C27.2627 14.0317 27.3357 14.1047 27.4258 14.1047C27.5158 14.1047 27.5889 14.0317 27.5889 13.9416C27.5889 13.8515 27.5158 13.7786 27.4258 13.7786Z" fill="#EAA895"/>
<path d="M26.8802 14.6501C26.9703 14.6501 27.0433 14.5771 27.0433 14.487C27.0433 14.397 26.9703 14.324 26.8802 14.324C26.7902 14.324 26.7171 14.397 26.7171 14.487C26.7172 14.5771 26.7902 14.6501 26.8802 14.6501Z" fill="#EAA895"/>
<path d="M27.4258 14.8298C27.3357 14.8298 27.2627 14.9029 27.2627 14.9929C27.2627 15.083 27.3357 15.156 27.4258 15.156C27.5158 15.156 27.5889 15.083 27.5889 14.9929C27.5889 14.9029 27.5158 14.8298 27.4258 14.8298Z" fill="#EAA895"/>
<path d="M26.8802 15.7014C26.9703 15.7014 27.0433 15.6284 27.0433 15.5383C27.0433 15.4483 26.9703 15.3752 26.8802 15.3752C26.7901 15.3752 26.7171 15.4483 26.7171 15.5383C26.7171 15.6284 26.7901 15.7014 26.8802 15.7014Z" fill="#EAA895"/>
<path d="M27.4258 15.8811C27.3357 15.8811 27.2627 15.9541 27.2627 16.0442C27.2627 16.1342 27.3357 16.2072 27.4258 16.2072C27.5158 16.2072 27.5889 16.1342 27.5889 16.0442C27.5889 15.9541 27.5158 15.8811 27.4258 15.8811Z" fill="#EAA895"/>
<path d="M26.8802 16.7526C26.9703 16.7526 27.0433 16.6796 27.0433 16.5895C27.0433 16.4995 26.9703 16.4265 26.8802 16.4265C26.7902 16.4265 26.7171 16.4995 26.7171 16.5895C26.7172 16.6796 26.7902 16.7526 26.8802 16.7526Z" fill="#EAA895"/>
<path d="M27.4258 16.9324C27.3357 16.9324 27.2627 17.0054 27.2627 17.0954C27.2627 17.1855 27.3357 17.2585 27.4258 17.2585C27.5158 17.2585 27.5889 17.1855 27.5889 17.0954C27.5889 17.0054 27.5158 16.9324 27.4258 16.9324Z" fill="#EAA895"/>
<path d="M26.8802 17.8039C26.9703 17.8039 27.0433 17.7309 27.0433 17.6409C27.0433 17.5508 26.9703 17.4778 26.8802 17.4778C26.7901 17.4778 26.7171 17.5508 26.7171 17.6409C26.7171 17.7309 26.7901 17.8039 26.8802 17.8039Z" fill="#EAA895"/>
<path d="M27.4258 18.3098C27.5158 18.3098 27.5889 18.2368 27.5889 18.1467C27.5889 18.0567 27.5158 17.9836 27.4258 17.9836C27.3357 17.9836 27.2627 18.0566 27.2627 18.1467C27.2627 18.2367 27.3357 18.3098 27.4258 18.3098Z" fill="#EAA895"/>
<path d="M26.8802 18.8552C26.9703 18.8552 27.0433 18.7821 27.0433 18.6921C27.0433 18.602 26.9703 18.5291 26.8802 18.5291C26.7902 18.5291 26.7171 18.602 26.7171 18.6921C26.7172 18.7821 26.7902 18.8552 26.8802 18.8552Z" fill="#EAA895"/>
<path d="M26.3745 4.64325C26.4646 4.64325 26.5376 4.57022 26.5376 4.48017C26.5376 4.39012 26.4646 4.31714 26.3745 4.31714C26.2845 4.31714 26.2115 4.39012 26.2115 4.48017C26.2115 4.57022 26.2845 4.64325 26.3745 4.64325Z" fill="#EAA895"/>
<path d="M26.3745 5.69452C26.4646 5.69452 26.5376 5.62153 26.5376 5.53149C26.5376 5.44144 26.4646 5.36841 26.3745 5.36841C26.2845 5.36841 26.2115 5.44144 26.2115 5.53149C26.2115 5.62153 26.2845 5.69452 26.3745 5.69452Z" fill="#EAA895"/>
<path d="M26.3745 6.74579C26.4646 6.74579 26.5376 6.67276 26.5376 6.58271C26.5376 6.49266 26.4646 6.41968 26.3745 6.41968C26.2845 6.41968 26.2115 6.49266 26.2115 6.58271C26.2115 6.67276 26.2845 6.74579 26.3745 6.74579Z" fill="#EAA895"/>
<path d="M26.3745 7.79706C26.4646 7.79706 26.5376 7.72407 26.5376 7.63403C26.5376 7.54398 26.4646 7.47095 26.3745 7.47095C26.2845 7.47095 26.2115 7.54393 26.2115 7.63403C26.2115 7.72403 26.2845 7.79706 26.3745 7.79706Z" fill="#EAA895"/>
<path d="M26.3745 8.84833C26.4646 8.84833 26.5376 8.77534 26.5376 8.68525C26.5376 8.59515 26.4646 8.52222 26.3745 8.52222C26.2845 8.52222 26.2115 8.5952 26.2115 8.68525C26.2115 8.77529 26.2845 8.84833 26.3745 8.84833Z" fill="#EAA895"/>
<path d="M26.4989 9.84086C26.5227 9.81255 26.5376 9.77646 26.5376 9.73656C26.5376 9.64652 26.4646 9.57349 26.3745 9.57349C26.2845 9.57349 26.2115 9.64647 26.2115 9.73656C26.2115 9.77646 26.2264 9.8125 26.2501 9.84086L26.4989 9.84086Z" fill="#EAA895"/>
<path d="M26.2232 11.8987C26.247 11.9591 26.3057 12.002 26.3746 12.002C26.4435 12.002 26.5022 11.9591 26.526 11.8987L26.2232 11.8987Z" fill="#EAA895"/>
<path d="M26.3745 13.0534C26.4646 13.0534 26.5376 12.9804 26.5376 12.8903C26.5376 12.8003 26.4646 12.7273 26.3745 12.7273C26.2845 12.7273 26.2115 12.8003 26.2115 12.8903C26.2115 12.9804 26.2845 13.0534 26.3745 13.0534Z" fill="#EAA895"/>
<path d="M26.3745 14.1047C26.4646 14.1047 26.5376 14.0317 26.5376 13.9416C26.5376 13.8516 26.4646 13.7786 26.3745 13.7786C26.2845 13.7786 26.2115 13.8515 26.2115 13.9416C26.2115 14.0317 26.2845 14.1047 26.3745 14.1047Z" fill="#EAA895"/>
<path d="M26.3744 15.156C26.4644 15.156 26.5375 15.083 26.5375 14.9929C26.5375 14.9029 26.4644 14.8298 26.3744 14.8298C26.2844 14.8298 26.2113 14.9029 26.2113 14.9929C26.2113 15.083 26.2844 15.156 26.3744 15.156Z" fill="#EAA895"/>
<path d="M26.3744 16.2072C26.4644 16.2072 26.5375 16.1342 26.5375 16.0442C26.5375 15.9541 26.4644 15.8811 26.3744 15.8811C26.2844 15.8811 26.2113 15.9541 26.2113 16.0442C26.2113 16.1342 26.2844 16.2072 26.3744 16.2072Z" fill="#EAA895"/>
<path d="M26.3744 17.2585C26.4644 17.2585 26.5375 17.1855 26.5375 17.0954C26.5375 17.0054 26.4644 16.9324 26.3744 16.9324C26.2844 16.9324 26.2113 17.0054 26.2113 17.0954C26.2113 17.1855 26.2844 17.2585 26.3744 17.2585Z" fill="#EAA895"/>
<path d="M25.8291 17.4778C25.739 17.4778 25.666 17.5508 25.666 17.6409C25.666 17.7309 25.739 17.8039 25.8291 17.8039C25.9191 17.8039 25.9922 17.731 25.9922 17.6409C25.9922 17.5508 25.9191 17.4778 25.8291 17.4778Z" fill="#EAA895"/>
<path d="M26.3744 18.3098C26.4644 18.3098 26.5375 18.2368 26.5375 18.1467C26.5375 18.0567 26.4644 17.9836 26.3744 17.9836C26.2844 17.9836 26.2113 18.0566 26.2113 18.1467C26.2113 18.2367 26.2844 18.3098 26.3744 18.3098Z" fill="#EAA895"/>
<path d="M25.8291 18.5291C25.739 18.5291 25.666 18.602 25.666 18.6921C25.666 18.7821 25.739 18.8552 25.8291 18.8552C25.9191 18.8552 25.9922 18.7821 25.9922 18.6921C25.9922 18.602 25.9191 18.5291 25.8291 18.5291Z" fill="#EAA895"/>
<path d="M26.3744 19.3611C26.4644 19.3611 26.5375 19.2881 26.5375 19.198C26.5375 19.1079 26.4644 19.0349 26.3744 19.0349C26.2844 19.0349 26.2113 19.1079 26.2113 19.198C26.2113 19.2881 26.2844 19.3611 26.3744 19.3611Z" fill="#EAA895"/>
<path d="M25.8291 19.9065C25.9191 19.9065 25.9922 19.8335 25.9922 19.7434C25.9922 19.6534 25.9192 19.5803 25.8291 19.5803C25.739 19.5803 25.666 19.6533 25.666 19.7434C25.6661 19.8335 25.739 19.9065 25.8291 19.9065Z" fill="#EAA895"/>
<path d="M25.3232 17.9836C25.2331 17.9836 25.1601 18.0566 25.1601 18.1467C25.1601 18.2368 25.2331 18.3098 25.3232 18.3098C25.4132 18.3098 25.4862 18.2368 25.4862 18.1467C25.4862 18.0566 25.4132 17.9836 25.3232 17.9836Z" fill="#EAA895"/>
<path d="M24.7777 18.5291C24.6877 18.5291 24.6146 18.602 24.6146 18.6921C24.6146 18.7821 24.6876 18.8552 24.7777 18.8552C24.8678 18.8552 24.9408 18.7821 24.9408 18.6921C24.9408 18.602 24.8678 18.5291 24.7777 18.5291Z" fill="#EAA895"/>
<path d="M25.4862 19.198C25.4862 19.1079 25.4132 19.0349 25.3232 19.0349C25.2331 19.0349 25.1601 19.1079 25.1601 19.198C25.1601 19.288 25.2331 19.3611 25.3232 19.3611C25.4132 19.3611 25.4862 19.2881 25.4862 19.198Z" fill="#EAA895"/>
<path d="M24.7777 19.5803C24.6877 19.5803 24.6146 19.6533 24.6146 19.7434C24.6146 19.8334 24.6876 19.9065 24.7777 19.9065C24.8678 19.9065 24.9408 19.8335 24.9408 19.7434C24.9408 19.6534 24.8678 19.5803 24.7777 19.5803Z" fill="#EAA895"/>
<path d="M23.7265 18.5291C23.6364 18.5291 23.5634 18.602 23.5634 18.6921C23.5634 18.7821 23.6364 18.8552 23.7265 18.8552C23.8165 18.8552 23.8896 18.7821 23.8896 18.6921C23.8896 18.602 23.8165 18.5291 23.7265 18.5291Z" fill="#EAA895"/>
<path d="M24.272 19.0349C24.182 19.0349 24.1089 19.1079 24.1089 19.198C24.1089 19.288 24.1819 19.3611 24.272 19.3611C24.3621 19.3611 24.4351 19.2881 24.4351 19.198C24.4351 19.1079 24.3621 19.0349 24.272 19.0349Z" fill="#EAA895"/>
<path d="M23.7265 19.9065C23.8165 19.9065 23.8896 19.8335 23.8896 19.7434C23.8896 19.6533 23.8165 19.5803 23.7265 19.5803C23.6364 19.5803 23.5634 19.6533 23.5634 19.7434C23.5634 19.8335 23.6364 19.9065 23.7265 19.9065Z" fill="#EAA895"/>
<path d="M22.6753 18.5291C22.5853 18.5291 22.5123 18.602 22.5123 18.6921C22.5123 18.7821 22.5853 18.8552 22.6753 18.8552C22.7654 18.8552 22.8384 18.7821 22.8384 18.6921C22.8384 18.602 22.7654 18.5291 22.6753 18.5291Z" fill="#EAA895"/>
<path d="M23.2208 19.0349C23.1307 19.0349 23.0577 19.1079 23.0577 19.198C23.0577 19.288 23.1307 19.3611 23.2208 19.3611C23.3108 19.3611 23.3839 19.2881 23.3839 19.198C23.3839 19.1079 23.3108 19.0349 23.2208 19.0349Z" fill="#EAA895"/>
<path d="M22.6753 19.5803C22.5853 19.5803 22.5123 19.6533 22.5123 19.7434C22.5123 19.8334 22.5853 19.9065 22.6753 19.9065C22.7654 19.9065 22.8384 19.8335 22.8384 19.7434C22.8384 19.6534 22.7654 19.5803 22.6753 19.5803Z" fill="#EAA895"/>
<path d="M21.624 18.5291C21.5339 18.5291 21.4609 18.602 21.4609 18.6921C21.4609 18.7821 21.5339 18.8552 21.624 18.8552C21.714 18.8552 21.787 18.7821 21.787 18.6921C21.787 18.602 21.714 18.5291 21.624 18.5291Z" fill="#EAA895"/>
<path d="M22.1694 19.0349C22.0794 19.0349 22.0063 19.1079 22.0063 19.198C22.0063 19.288 22.0794 19.3611 22.1694 19.3611C22.2595 19.3611 22.3325 19.2881 22.3325 19.198C22.3325 19.1079 22.2595 19.0349 22.1694 19.0349Z" fill="#EAA895"/>
<path d="M21.624 19.5803C21.5339 19.5803 21.4609 19.6533 21.4609 19.7434C21.4609 19.8334 21.5339 19.9065 21.624 19.9065C21.714 19.9065 21.787 19.8335 21.787 19.7434C21.787 19.6534 21.714 19.5803 21.624 19.5803Z" fill="#EAA895"/>
<path d="M20.5726 18.5291C20.4825 18.5291 20.4095 18.602 20.4095 18.6921C20.4095 18.7821 20.4825 18.8552 20.5726 18.8552C20.6627 18.8552 20.7357 18.7821 20.7357 18.6921C20.7357 18.602 20.6626 18.5291 20.5726 18.5291Z" fill="#EAA895"/>
<path d="M21.1183 19.0349C21.0282 19.0349 20.9552 19.1079 20.9552 19.198C20.9552 19.288 21.0282 19.3611 21.1183 19.3611C21.2083 19.3611 21.2814 19.2881 21.2814 19.198C21.2814 19.1079 21.2083 19.0349 21.1183 19.0349Z" fill="#EAA895"/>
<path d="M20.5726 19.9065C20.6627 19.9065 20.7357 19.8335 20.7357 19.7434C20.7357 19.6533 20.6627 19.5803 20.5726 19.5803C20.4825 19.5803 20.4095 19.6533 20.4095 19.7434C20.4095 19.8335 20.4825 19.9065 20.5726 19.9065Z" fill="#EAA895"/>
<path d="M19.5215 18.5291C19.4314 18.5291 19.3584 18.602 19.3584 18.6921C19.3584 18.7821 19.4314 18.8552 19.5215 18.8552C19.6115 18.8552 19.6846 18.7821 19.6846 18.6921C19.6846 18.602 19.6115 18.5291 19.5215 18.5291Z" fill="#EAA895"/>
<path d="M20.067 19.0349C19.977 19.0349 19.904 19.1079 19.904 19.198C19.904 19.288 19.977 19.3611 20.067 19.3611C20.1571 19.3611 20.2301 19.2881 20.2301 19.198C20.2301 19.1079 20.1571 19.0349 20.067 19.0349Z" fill="#EAA895"/>
<path d="M19.5215 19.5803C19.4314 19.5803 19.3584 19.6533 19.3584 19.7434C19.3584 19.8334 19.4314 19.9065 19.5215 19.9065C19.6115 19.9065 19.6846 19.8335 19.6846 19.7434C19.6846 19.6534 19.6115 19.5803 19.5215 19.5803Z" fill="#EAA895"/>
<path d="M18.4701 18.5291C18.3801 18.5291 18.307 18.602 18.307 18.6921C18.307 18.7821 18.38 18.8552 18.4701 18.8552C18.5601 18.8552 18.6332 18.7821 18.6332 18.6921C18.6332 18.602 18.5601 18.5291 18.4701 18.5291Z" fill="#EAA895"/>
<path d="M19.0157 19.0349C18.9256 19.0349 18.8526 19.1079 18.8526 19.198C18.8526 19.288 18.9256 19.3611 19.0157 19.3611C19.1057 19.3611 19.1787 19.2881 19.1787 19.198C19.1787 19.1079 19.1057 19.0349 19.0157 19.0349Z" fill="#EAA895"/>
<path d="M18.4701 19.5803C18.3801 19.5803 18.307 19.6533 18.307 19.7434C18.307 19.8334 18.38 19.9065 18.4701 19.9065C18.5601 19.9065 18.6332 19.8335 18.6332 19.7434C18.6332 19.6534 18.5601 19.5803 18.4701 19.5803Z" fill="#EAA895"/>
<path d="M17.4189 18.5291C17.3288 18.5291 17.2558 18.602 17.2558 18.6921C17.2558 18.7821 17.3288 18.8552 17.4189 18.8552C17.509 18.8552 17.5819 18.7821 17.5819 18.6921C17.5819 18.602 17.5089 18.5291 17.4189 18.5291Z" fill="#EAA895"/>
<path d="M17.9644 19.0349C17.8744 19.0349 17.8013 19.1079 17.8013 19.198C17.8013 19.288 17.8744 19.3611 17.9644 19.3611C18.0545 19.3611 18.1275 19.2881 18.1275 19.198C18.1275 19.1079 18.0545 19.0349 17.9644 19.0349Z" fill="#EAA895"/>
<path d="M17.4189 19.9065C17.5089 19.9065 17.5819 19.8335 17.5819 19.7434C17.5819 19.6533 17.5089 19.5803 17.4189 19.5803C17.3288 19.5803 17.2558 19.6533 17.2558 19.7434C17.2558 19.8335 17.3288 19.9065 17.4189 19.9065Z" fill="#EAA895"/>
<path d="M16.3677 18.5291C16.2777 18.5291 16.2047 18.602 16.2047 18.6921C16.2047 18.7821 16.2776 18.8552 16.3677 18.8552C16.4578 18.8552 16.5308 18.7821 16.5308 18.6921C16.5308 18.602 16.4578 18.5291 16.3677 18.5291Z" fill="#EAA895"/>
<path d="M16.9132 19.0349C16.8231 19.0349 16.7501 19.1079 16.7501 19.198C16.7501 19.288 16.8231 19.3611 16.9132 19.3611C17.0033 19.3611 17.0762 19.2881 17.0762 19.198C17.0762 19.1079 17.0032 19.0349 16.9132 19.0349Z" fill="#EAA895"/>
<path d="M16.3677 19.5803C16.2777 19.5803 16.2047 19.6533 16.2047 19.7434C16.2047 19.8334 16.2776 19.9065 16.3677 19.9065C16.4578 19.9065 16.5308 19.8335 16.5308 19.7434C16.5308 19.6534 16.4578 19.5803 16.3677 19.5803Z" fill="#EAA895"/>
<path d="M15.3165 18.5291C15.2264 18.5291 15.1534 18.602 15.1534 18.6921C15.1534 18.7821 15.2264 18.8552 15.3165 18.8552C15.4065 18.8552 15.4796 18.7821 15.4796 18.6921C15.4796 18.602 15.4065 18.5291 15.3165 18.5291Z" fill="#EAA895"/>
<path d="M15.8617 19.0349C15.7716 19.0349 15.6986 19.1079 15.6986 19.198C15.6986 19.288 15.7716 19.3611 15.8617 19.3611C15.9517 19.3611 16.0247 19.2881 16.0247 19.198C16.0247 19.1079 15.9517 19.0349 15.8617 19.0349Z" fill="#EAA895"/>
<path d="M15.3165 19.5803C15.2264 19.5803 15.1534 19.6533 15.1534 19.7434C15.1534 19.8334 15.2264 19.9065 15.3165 19.9065C15.4065 19.9065 15.4796 19.8335 15.4796 19.7434C15.4796 19.6534 15.4065 19.5803 15.3165 19.5803Z" fill="#EAA895"/>
<path d="M14.2651 18.5291C14.1751 18.5291 14.102 18.602 14.102 18.6921C14.102 18.7821 14.175 18.8552 14.2651 18.8552C14.3552 18.8552 14.4282 18.7821 14.4282 18.6921C14.4282 18.602 14.3552 18.5291 14.2651 18.5291Z" fill="#EAA895"/>
<path d="M14.8105 19.0349C14.7205 19.0349 14.6475 19.1079 14.6475 19.198C14.6475 19.288 14.7204 19.3611 14.8105 19.3611C14.9006 19.3611 14.9736 19.2881 14.9736 19.198C14.9736 19.1079 14.9006 19.0349 14.8105 19.0349Z" fill="#EAA895"/>
<path d="M14.2651 19.9065C14.3552 19.9065 14.4282 19.8335 14.4282 19.7434C14.4282 19.6533 14.3552 19.5803 14.2651 19.5803C14.175 19.5803 14.102 19.6533 14.102 19.7434C14.102 19.8335 14.175 19.9065 14.2651 19.9065Z" fill="#EAA895"/>
<path d="M13.214 18.5291C13.1239 18.5291 13.0509 18.602 13.0509 18.6921C13.0509 18.7821 13.1239 18.8552 13.214 18.8552C13.304 18.8552 13.3771 18.7821 13.3771 18.6921C13.377 18.602 13.304 18.5291 13.214 18.5291Z" fill="#EAA895"/>
<path d="M13.7592 19.0349C13.6691 19.0349 13.5961 19.1079 13.5961 19.198C13.5961 19.288 13.6691 19.3611 13.7592 19.3611C13.8492 19.3611 13.9222 19.2881 13.9222 19.198C13.9222 19.1079 13.8493 19.0349 13.7592 19.0349Z" fill="#EAA895"/>
<path d="M13.214 19.5803C13.1239 19.5803 13.0509 19.6533 13.0509 19.7434C13.0509 19.8334 13.1239 19.9065 13.214 19.9065C13.304 19.9065 13.3771 19.8335 13.3771 19.7434C13.377 19.6534 13.304 19.5803 13.214 19.5803Z" fill="#EAA895"/>
<path d="M12.1627 18.5291C12.0727 18.5291 11.9997 18.602 11.9997 18.6921C11.9997 18.7821 12.0727 18.8552 12.1627 18.8552C12.2528 18.8552 12.3258 18.7821 12.3258 18.6921C12.3258 18.602 12.2528 18.5291 12.1627 18.5291Z" fill="#EAA895"/>
<path d="M12.7079 19.0349C12.6179 19.0349 12.5448 19.1079 12.5448 19.198C12.5448 19.288 12.6179 19.3611 12.7079 19.3611C12.798 19.3611 12.871 19.2881 12.871 19.198C12.871 19.1079 12.798 19.0349 12.7079 19.0349Z" fill="#EAA895"/>
<path d="M12.1627 19.5803C12.0727 19.5803 11.9997 19.6533 11.9997 19.7434C11.9997 19.8334 12.0727 19.9065 12.1627 19.9065C12.2528 19.9065 12.3258 19.8335 12.3258 19.7434C12.3258 19.6534 12.2528 19.5803 12.1627 19.5803Z" fill="#EAA895"/>
<path d="M11.1114 18.5291C11.0213 18.5291 10.9483 18.602 10.9483 18.6921C10.9483 18.7821 11.0213 18.8552 11.1114 18.8552C11.2014 18.8552 11.2744 18.7821 11.2744 18.6921C11.2744 18.602 11.2014 18.5291 11.1114 18.5291Z" fill="#EAA895"/>
<path d="M11.6568 19.0349C11.5667 19.0349 11.4937 19.1079 11.4937 19.198C11.4937 19.288 11.5667 19.3611 11.6568 19.3611C11.7468 19.3611 11.8199 19.2881 11.8199 19.198C11.8198 19.1079 11.7468 19.0349 11.6568 19.0349Z" fill="#EAA895"/>
<path d="M11.1114 19.9065C11.2014 19.9065 11.2744 19.8335 11.2744 19.7434C11.2744 19.6533 11.2014 19.5803 11.1114 19.5803C11.0213 19.5803 10.9483 19.6533 10.9483 19.7434C10.9483 19.8335 11.0213 19.9065 11.1114 19.9065Z" fill="#EAA895"/>
<path d="M10.6056 18.3098C10.6924 18.3098 10.7626 18.2418 10.7677 18.1562L10.4435 18.1562C10.4485 18.2418 10.5188 18.3098 10.6056 18.3098Z" fill="#EAA895"/>
<path d="M10.0601 18.5291C9.97007 18.5291 9.89703 18.602 9.89703 18.6921C9.89703 18.7821 9.97007 18.8552 10.0601 18.8552C10.1502 18.8552 10.2232 18.7821 10.2232 18.6921C10.2231 18.602 10.1502 18.5291 10.0601 18.5291Z" fill="#EAA895"/>
<path d="M10.6056 19.3611C10.6956 19.3611 10.7686 19.2881 10.7686 19.198C10.7686 19.1079 10.6956 19.0349 10.6056 19.0349C10.5155 19.0349 10.4425 19.1079 10.4425 19.198C10.4425 19.2881 10.5155 19.3611 10.6056 19.3611Z" fill="#EAA895"/>
<path d="M10.0601 19.5803C9.97007 19.5803 9.89703 19.6533 9.89703 19.7434C9.89703 19.8334 9.97007 19.9065 10.0601 19.9065C10.1502 19.9065 10.2232 19.8335 10.2232 19.7434C10.2231 19.6534 10.1502 19.5803 10.0601 19.5803Z" fill="#EAA895"/>
<path d="M9.00887 18.5291C8.91883 18.5291 8.84579 18.602 8.84579 18.6921C8.84579 18.7821 8.91883 18.8552 9.00887 18.8552C9.09892 18.8552 9.17195 18.7821 9.17195 18.6921C9.1719 18.602 9.09892 18.5291 9.00887 18.5291Z" fill="#EAA895"/>
<path d="M9.55418 19.0349C9.46413 19.0349 9.3911 19.1079 9.3911 19.198C9.3911 19.288 9.46408 19.3611 9.55418 19.3611C9.64422 19.3611 9.71725 19.2881 9.71725 19.198C9.71721 19.1079 9.64422 19.0349 9.55418 19.0349Z" fill="#EAA895"/>
<path d="M9.00887 19.5803C8.91883 19.5803 8.84579 19.6533 8.84579 19.7434C8.84579 19.8334 8.91883 19.9065 9.00887 19.9065C9.09892 19.9065 9.17195 19.8335 9.17195 19.7434C9.1719 19.6534 9.09892 19.5803 9.00887 19.5803Z" fill="#EAA895"/>
<path d="M7.9575 18.5291C7.86745 18.5291 7.79442 18.602 7.79442 18.6921C7.79442 18.7821 7.86745 18.8552 7.9575 18.8552C8.04754 18.8552 8.12057 18.7821 8.12057 18.6921C8.12053 18.602 8.04754 18.5291 7.9575 18.5291Z" fill="#EAA895"/>
<path d="M8.50306 19.0349C8.41301 19.0349 8.33998 19.1079 8.33998 19.198C8.33998 19.288 8.41301 19.3611 8.50306 19.3611C8.59311 19.3611 8.66614 19.2881 8.66614 19.198C8.66614 19.1079 8.59315 19.0349 8.50306 19.0349Z" fill="#EAA895"/>
<path d="M7.9575 19.9065C8.04756 19.9065 8.12057 19.8335 8.12057 19.7434C8.12057 19.6533 8.04756 19.5803 7.9575 19.5803C7.86743 19.5803 7.79442 19.6533 7.79442 19.7434C7.79442 19.8335 7.86743 19.9065 7.9575 19.9065Z" fill="#EAA895"/>
<path d="M6.90637 18.5291C6.81633 18.5291 6.74329 18.602 6.74329 18.6921C6.74329 18.7821 6.81628 18.8552 6.90637 18.8552C6.99642 18.8552 7.06945 18.7821 7.06945 18.6921C7.0694 18.602 6.99642 18.5291 6.90637 18.5291Z" fill="#EAA895"/>
<path d="M7.45181 19.3611C7.54187 19.3611 7.61488 19.2881 7.61488 19.198C7.61488 19.1079 7.54187 19.0349 7.45181 19.0349C7.36174 19.0349 7.28873 19.1079 7.28873 19.198C7.28873 19.2881 7.36174 19.3611 7.45181 19.3611Z" fill="#EAA895"/>
<path d="M6.90637 19.5803C6.81633 19.5803 6.74329 19.6533 6.74329 19.7434C6.74329 19.8334 6.81628 19.9065 6.90637 19.9065C6.99642 19.9065 7.06945 19.8335 7.06945 19.7434C7.0694 19.6534 6.99642 19.5803 6.90637 19.5803Z" fill="#EAA895"/>
<path d="M5.69205 18.6921C5.69205 18.7821 5.76503 18.8552 5.85513 18.8552C5.94517 18.8552 6.0182 18.7821 6.0182 18.6921C6.0182 18.602 5.94522 18.5291 5.85513 18.5291C5.76503 18.5291 5.69205 18.602 5.69205 18.6921Z" fill="#EAA895"/>
<path d="M6.56351 19.198C6.56351 19.1079 6.49052 19.0349 6.40043 19.0349C6.31038 19.0349 6.23735 19.1079 6.23735 19.198C6.23735 19.288 6.31033 19.3611 6.40043 19.3611C6.49052 19.3611 6.56351 19.2881 6.56351 19.198Z" fill="#EAA895"/>
<path d="M6.01795 19.7434C6.01795 19.6534 5.94497 19.5803 5.85487 19.5803C5.76483 19.5803 5.6918 19.6533 5.6918 19.7434C5.6918 19.7704 5.69901 19.7956 5.71069 19.818C5.78461 19.8435 5.86012 19.8656 5.93733 19.8833C5.98537 19.855 6.01795 19.8032 6.01795 19.7434Z" fill="#EAA895"/>
<path d="M4.64067 18.6921C4.64067 18.7821 4.7137 18.8552 4.80375 18.8552C4.8938 18.8552 4.96683 18.7821 4.96683 18.6921C4.96683 18.602 4.8938 18.5291 4.80375 18.5291C4.7137 18.5291 4.64067 18.602 4.64067 18.6921Z" fill="#EAA895"/>
<path d="M5.34918 19.0349C5.25914 19.0349 5.1861 19.1079 5.1861 19.198C5.1861 19.288 5.25914 19.3611 5.34918 19.3611C5.43923 19.3611 5.51226 19.2881 5.51226 19.198C5.51226 19.1079 5.43928 19.0349 5.34918 19.0349Z" fill="#EAA895"/>
<path d="M27.2738 9.79224C27.2966 9.85463 27.3557 9.89953 27.426 9.89953C27.4963 9.89953 27.5554 9.85463 27.5782 9.79224L27.2738 9.79224Z" fill="white"/>
<path d="M26.8803 10.1189C26.7903 10.1189 26.7173 10.1919 26.7173 10.2819C26.7173 10.372 26.7902 10.445 26.8803 10.445C26.9704 10.445 27.0434 10.372 27.0434 10.2819C27.0434 10.1919 26.9704 10.1189 26.8803 10.1189Z" fill="white"/>
<path d="M27.4259 10.6248C27.3358 10.6248 27.2628 10.6978 27.2628 10.7878C27.2628 10.8779 27.3358 10.9509 27.4259 10.9509C27.5159 10.9509 27.589 10.8779 27.589 10.7878C27.589 10.6978 27.5159 10.6248 27.4259 10.6248Z" fill="white"/>
<path d="M26.8803 11.4961C26.9704 11.4961 27.0434 11.4231 27.0434 11.333C27.0434 11.2429 26.9704 11.1699 26.8803 11.1699C26.7903 11.1699 26.7173 11.2429 26.7173 11.333C26.7173 11.4231 26.7903 11.4961 26.8803 11.4961Z" fill="white"/>
<path d="M27.3464 11.9804L27.5054 11.9804C27.555 11.9525 27.589 11.8999 27.589 11.8389C27.589 11.7488 27.5159 11.6758 27.4259 11.6758C27.3358 11.6758 27.2628 11.7488 27.2628 11.8389C27.2628 11.8999 27.2968 11.9525 27.3464 11.9804Z" fill="white"/>
<path d="M26.2228 9.79224C26.2457 9.85463 26.3047 9.89953 26.375 9.89953C26.4453 9.89953 26.5044 9.85463 26.5272 9.79224L26.2228 9.79224Z" fill="white"/>
<path d="M26.3745 10.9509C26.4646 10.9509 26.5376 10.8779 26.5376 10.7878C26.5376 10.6978 26.4646 10.6248 26.3745 10.6248C26.2845 10.6248 26.2114 10.6978 26.2114 10.7878C26.2114 10.8779 26.2845 10.9509 26.3745 10.9509Z" fill="white"/>
<path d="M26.2953 11.9804L26.4542 11.9804C26.5039 11.9525 26.5378 11.8999 26.5378 11.8389C26.5378 11.7488 26.4648 11.6758 26.3748 11.6758C26.2847 11.6758 26.2117 11.7488 26.2117 11.8389C26.2116 11.8999 26.2456 11.9525 26.2953 11.9804Z" fill="white"/>
<path d="M11.1115 18.5291C11.0214 18.5291 10.9484 18.602 10.9484 18.6921C10.9484 18.7821 11.0214 18.8552 11.1115 18.8552C11.2015 18.8552 11.2746 18.7821 11.2746 18.6921C11.2746 18.602 11.2015 18.5291 11.1115 18.5291Z" fill="white"/>
<path d="M11.6188 19.04C11.5472 19.0573 11.4938 19.1211 11.4938 19.1979C11.4938 19.2747 11.5472 19.3384 11.6188 19.3557L11.6188 19.04Z" fill="white"/>
<path d="M11.1115 19.9065C11.2016 19.9065 11.2746 19.8335 11.2746 19.7434C11.2746 19.6533 11.2016 19.5803 11.1115 19.5803C11.0214 19.5803 10.9484 19.6533 10.9484 19.7434C10.9484 19.8335 11.0214 19.9065 11.1115 19.9065Z" fill="white"/>
<path d="M10.0602 18.5291C9.97019 18.5291 9.89716 18.602 9.89716 18.6921C9.89716 18.7821 9.97019 18.8552 10.0602 18.8552C10.1503 18.8552 10.2233 18.7821 10.2233 18.6921C10.2233 18.602 10.1503 18.5291 10.0602 18.5291Z" fill="white"/>
<path d="M10.6057 19.3611C10.6957 19.3611 10.7687 19.2881 10.7687 19.198C10.7687 19.1079 10.6957 19.0349 10.6057 19.0349C10.5156 19.0349 10.4426 19.1079 10.4426 19.198C10.4426 19.2881 10.5156 19.3611 10.6057 19.3611Z" fill="white"/>
<path d="M10.0602 19.5803C9.97019 19.5803 9.89716 19.6533 9.89716 19.7434C9.89716 19.8334 9.97019 19.9065 10.0602 19.9065C10.1503 19.9065 10.2233 19.8335 10.2233 19.7434C10.2233 19.6534 10.1503 19.5803 10.0602 19.5803Z" fill="white"/>
<path d="M9.55427 19.0349C9.5043 19.0349 9.46014 19.0579 9.43019 19.0933L9.43019 19.3027C9.4601 19.3381 9.50425 19.361 9.55427 19.361C9.64432 19.361 9.71735 19.288 9.71735 19.1979C9.7173 19.1079 9.64432 19.0349 9.55427 19.0349Z" fill="white"/>
<path d="M25.5568 20.1351L6.44327 20.1351C5.09603 20.1351 4 19.039 4 17.6918L4 6.30801C4 4.96078 5.09603 3.86475 6.44327 3.86475L25.5568 3.86474C26.904 3.86474 28 4.96078 28 6.30801L28 17.6918C28 19.039 26.904 20.1351 25.5568 20.1351ZM6.44327 4.254C5.31067 4.254 4.38925 5.17542 4.38925 6.30801L4.38925 17.6918C4.38925 18.8244 5.31067 19.7458 6.44327 19.7458L25.5568 19.7458C26.6894 19.7458 27.6108 18.8244 27.6108 17.6918L27.6108 6.30801C27.6108 5.17542 26.6894 4.25399 25.5568 4.25399L6.44327 4.254Z" fill="#31373D"/>
<path d="M12.6314 15.5111C12.3849 15.5111 12.154 15.3793 12.0288 15.1674L12.0258 15.1624C11.8728 14.9031 11.1361 13.6547 10.5336 12.6245C9.96329 13.5997 9.26537 14.7828 9.04942 15.1486L9.0384 15.1672C8.9131 15.3793 8.68225 15.511 8.43578 15.511C8.31118 15.511 8.18837 15.4774 8.08065 15.4138C7.74868 15.2178 7.63806 14.7882 7.83414 14.4561C7.84164 14.4435 8.65525 13.0656 9.30775 11.9501L7.81754 11.939C7.21056 11.9391 6.63761 11.7009 6.20565 11.2684C5.77361 10.8358 5.53567 10.2618 5.53567 9.65202C5.53567 8.39094 6.56167 7.36499 7.82275 7.36499C8.97929 7.36499 9.56284 8.14035 9.94201 8.81586C10.1053 9.10682 10.3339 9.50647 10.5362 9.85855C10.7384 9.50647 10.967 9.10677 11.1303 8.81586C11.5094 8.1404 12.093 7.36499 13.2495 7.36499C14.5106 7.36499 15.5366 8.39094 15.5366 9.65202C15.5366 10.9131 14.5106 11.9391 13.2495 11.9391L11.7594 11.9502C12.4124 13.0664 13.2255 14.4436 13.2329 14.456C13.429 14.7882 13.3185 15.2178 12.9865 15.4138C12.8787 15.4775 12.756 15.5111 12.6314 15.5111ZM10.5336 12.044C10.6028 12.044 10.6668 12.0807 10.7017 12.1405C11.3259 13.2106 12.1935 14.6807 12.361 14.9645L12.3639 14.9694C12.4203 15.0648 12.5203 15.1218 12.6314 15.1218C12.6864 15.1218 12.7408 15.1069 12.7885 15.0787C12.9357 14.9918 12.9848 14.8013 12.8979 14.6541C12.8899 14.6407 11.9259 13.008 11.2537 11.8561C11.2187 11.7962 11.2183 11.7221 11.2526 11.6617C11.287 11.6014 11.3509 11.5639 11.4203 11.5634L13.2481 11.5498C14.296 11.5498 15.1474 10.6985 15.1474 9.65202C15.1474 8.60558 14.296 7.75424 13.2496 7.75424C12.3031 7.75424 11.8348 8.35607 11.4698 9.00641C11.2577 9.38413 10.9367 9.94335 10.7049 10.346C10.6701 10.4063 10.6058 10.4435 10.5362 10.4435C10.4666 10.4435 10.4023 10.4063 10.3675 10.346C10.1356 9.94335 9.81465 9.38408 9.60264 9.00641C9.23762 8.35607 8.76929 7.75424 7.82284 7.75424C6.7764 7.75424 5.92501 8.60558 5.92501 9.65202C5.92501 10.1579 6.12254 10.6343 6.48118 10.9933C6.83959 11.3522 7.31471 11.5498 7.81909 11.5498L9.64693 11.5633C9.71635 11.5638 9.78025 11.6013 9.8146 11.6616C9.84896 11.722 9.84854 11.7961 9.81357 11.856C9.12882 13.0294 8.17731 14.6406 8.16929 14.6542C8.08248 14.8012 8.13151 14.9917 8.2787 15.0786C8.32646 15.1069 8.38084 15.1218 8.43587 15.1218C8.54528 15.1218 8.64775 15.0634 8.70329 14.9693L8.71431 14.9507C8.95192 14.5481 9.77331 13.1557 10.3655 12.1405C10.4004 12.0808 10.4643 12.044 10.5336 12.044ZM11.4129 10.9434C11.3438 10.9434 11.2797 10.9067 11.2448 10.8468C11.2097 10.7866 11.2095 10.7121 11.2443 10.6517C11.5838 10.0621 11.8415 9.61072 12.0104 9.30988C12.403 8.61036 12.7157 8.3743 13.2495 8.3743C13.9541 8.3743 14.5273 8.94749 14.5273 9.65207C14.5273 10.3564 13.9528 10.9294 13.2466 10.9299L11.4144 10.9434C11.4139 10.9434 11.4134 10.9434 11.4129 10.9434ZM13.2495 8.7635C12.9559 8.7635 12.7346 8.81479 12.3498 9.50038C12.2096 9.75018 12.0086 10.103 11.7508 10.5517L13.2444 10.5406L13.2458 10.5406C13.7378 10.5406 14.1381 10.142 14.1381 9.65207C14.1381 9.16213 13.7394 8.7635 13.2495 8.7635ZM9.65935 10.9434C9.65889 10.9434 9.65842 10.9434 9.6579 10.9434L7.82129 10.9298C7.11817 10.9298 6.54493 10.3566 6.54493 9.65202C6.54493 8.94744 7.11817 8.37426 7.82275 8.37426C8.3566 8.37426 8.66926 8.61032 9.06189 9.30983C9.27367 9.68713 9.59537 10.2478 9.82801 10.6516C9.86284 10.7121 9.86265 10.7865 9.82749 10.8468C9.79262 10.9067 9.72859 10.9434 9.65935 10.9434ZM7.82275 8.76351C7.33281 8.76351 6.93418 9.16208 6.93418 9.65202C6.93418 10.142 7.33281 10.5406 7.82275 10.5406L9.32143 10.5517C9.11757 10.1968 8.88709 9.79372 8.72246 9.50043C8.33767 8.81479 8.11642 8.76351 7.82275 8.76351Z" fill="#31373D"/>
<path d="M16.5281 18.5711L14.9432 18.5711C14.6254 18.5711 14.3669 18.3126 14.3669 17.9948L14.3669 17.5697C14.3669 17.252 14.6254 16.9934 14.9432 16.9934L16.5281 16.9934C16.8459 16.9934 17.1045 17.2519 17.1045 17.5697L17.1045 17.9948C17.1045 18.3126 16.846 18.5711 16.5281 18.5711ZM14.9433 17.3827C14.8401 17.3827 14.7562 17.4666 14.7562 17.5698L14.7562 17.9948C14.7562 18.098 14.8401 18.1819 14.9433 18.1819L16.5282 18.1819C16.6314 18.1819 16.7153 18.098 16.7153 17.9948L16.7153 17.5698C16.7153 17.4666 16.6314 17.3827 16.5282 17.3827L14.9433 17.3827Z" fill="#31373D"/>
<path d="M19.8088 18.5711L18.2238 18.5711C17.9061 18.5711 17.6475 18.3126 17.6475 17.9948L17.6475 17.5697C17.6475 17.252 17.906 16.9934 18.2238 16.9934L19.8088 16.9934C20.1265 16.9934 20.3851 17.2519 20.3851 17.5697L20.3851 17.9948C20.3851 18.3126 20.1265 18.5711 19.8088 18.5711ZM18.2238 17.3827C18.1207 17.3827 18.0368 17.4666 18.0368 17.5698L18.0368 17.9948C18.0368 18.098 18.1207 18.1819 18.2238 18.1819L19.8088 18.1819C19.9119 18.1819 19.9958 18.098 19.9958 17.9948L19.9958 17.5698C19.9958 17.4666 19.9119 17.3827 19.8088 17.3827L18.2238 17.3827Z" fill="#31373D"/>
<path d="M22.2807 18.5711L21.4236 18.5711C21.1504 18.5711 20.9281 18.3488 20.9281 18.0756L20.9281 17.4889C20.9281 17.2157 21.1504 16.9934 21.4236 16.9934L22.2807 16.9934C22.5539 16.9934 22.7761 17.2157 22.7761 17.4889L22.7761 18.0756C22.7762 18.3488 22.5539 18.5711 22.2807 18.5711ZM21.4236 17.3827C21.365 17.3827 21.3173 17.4303 21.3173 17.4889L21.3173 18.0756C21.3173 18.1342 21.365 18.1818 21.4236 18.1818L22.2807 18.1818C22.3392 18.1818 22.3869 18.1342 22.3869 18.0756L22.3869 17.4889C22.3869 17.4303 22.3392 17.3827 22.2807 17.3827L21.4236 17.3827Z" fill="#31373D"/>
<path d="M24.6718 18.5711L23.8147 18.5711C23.5415 18.5711 23.3192 18.3488 23.3192 18.0756L23.3192 17.4889C23.3192 17.2157 23.5415 16.9934 23.8147 16.9934L24.6718 16.9934C24.945 16.9934 25.1673 17.2157 25.1673 17.4889L25.1673 18.0756C25.1673 18.3488 24.945 18.5711 24.6718 18.5711ZM23.8147 17.3827C23.7561 17.3827 23.7084 17.4303 23.7084 17.4889L23.7084 18.0756C23.7084 18.1342 23.7561 18.1818 23.8147 18.1818L24.6718 18.1818C24.7304 18.1818 24.778 18.1342 24.778 18.0756L24.778 17.4889C24.778 17.4303 24.7304 17.3827 24.6718 17.3827L23.8147 17.3827Z" fill="#31373D"/>
<path d="M21.4894 15.181L14.6657 15.181C14.5582 15.181 14.4711 15.0939 14.4711 14.9864C14.4711 14.8789 14.5582 14.7917 14.6657 14.7917L21.4894 14.7917C21.5969 14.7917 21.684 14.8789 21.684 14.9864C21.684 15.0939 21.5969 15.181 21.4894 15.181Z" fill="#31373D"/>
<path d="M24.8683 15.181L22.7814 15.181C22.674 15.181 22.5868 15.0939 22.5868 14.9864C22.5868 14.8789 22.674 14.7917 22.7814 14.7917L24.8683 14.7917C24.9758 14.7917 25.0629 14.8789 25.0629 14.9864C25.0629 15.0939 24.9758 15.181 24.8683 15.181Z" fill="#31373D"/>
</g>
</g>
<defs>
<clipPath id="clip0_1148_2703">
<rect width="32" height="24" fill="white"/>
</clipPath>
<clipPath id="clip1_1148_2703">
<rect width="24" height="24" fill="white" transform="translate(4)"/>
</clipPath>
</defs>
</svg>
