<svg width="16" height="16" viewBox="0 0 16 16" fill="none" xmlns="http://www.w3.org/2000/svg">
<g clip-path="url(#clip0_1183_3437)">
<path d="M6.66668 12.6665C6.51091 12.6669 6.35996 12.6126 6.24001 12.5132C6.17251 12.4572 6.11671 12.3885 6.07581 12.3109C6.0349 12.2334 6.00971 12.1485 6.00166 12.0612C5.99361 11.9739 6.00286 11.8858 6.02889 11.8021C6.05492 11.7184 6.09721 11.6406 6.15335 11.5732L9.14001 7.99988L6.26001 4.41988C6.20464 4.35169 6.16328 4.27322 6.13833 4.189C6.11337 4.10477 6.10531 4.01644 6.1146 3.92909C6.1239 3.84174 6.15036 3.75708 6.19248 3.67999C6.23459 3.6029 6.29153 3.53489 6.36001 3.47988C6.42899 3.41919 6.50977 3.37341 6.59728 3.34542C6.68478 3.31742 6.77714 3.30782 6.86853 3.31721C6.95993 3.3266 7.04839 3.35478 7.12838 3.39998C7.20837 3.44518 7.27815 3.50643 7.33335 3.57988L10.5533 7.57988C10.6514 7.69917 10.705 7.8488 10.705 8.00321C10.705 8.15763 10.6514 8.30726 10.5533 8.42655L7.22001 12.4265C7.15314 12.5072 7.06818 12.571 6.97204 12.6127C6.8759 12.6544 6.77128 12.6728 6.66668 12.6665Z" fill="#E63535"/>
</g>
<defs>
<clipPath id="clip0_1183_3437">
<rect width="16" height="16" fill="white"/>
</clipPath>
</defs>
</svg>
