<svg width="16" height="16" viewBox="0 0 16 16" fill="none" xmlns="http://www.w3.org/2000/svg">
<path d="M10.6666 8.00096C10.667 8.15672 10.6127 8.30768 10.5133 8.42762L7.17998 12.4276C7.06682 12.5638 6.90421 12.6494 6.72793 12.6656C6.55165 12.6819 6.37612 12.6274 6.23998 12.5143C6.10384 12.4011 6.01822 12.2385 6.00197 12.0622C5.98571 11.886 6.04015 11.7104 6.15331 11.5743L9.13998 8.00096L6.25998 4.42762C6.2046 4.35943 6.16325 4.28097 6.13829 4.19674C6.11334 4.11251 6.10528 4.02419 6.11457 3.93684C6.12386 3.84948 6.15033 3.76483 6.19244 3.68774C6.23456 3.61065 6.2915 3.54264 6.35998 3.48762C6.42853 3.42657 6.50895 3.38033 6.59619 3.3518C6.68344 3.32327 6.77564 3.31307 6.86702 3.32183C6.9584 3.3306 7.04698 3.35813 7.12721 3.40272C7.20745 3.44731 7.27762 3.50799 7.33331 3.58096L10.5533 7.58096C10.637 7.70435 10.6769 7.85222 10.6666 8.00096Z" fill="#6440FE"/>
</svg>
