<svg width="12" height="12" viewBox="0 0 12 12" fill="none" xmlns="http://www.w3.org/2000/svg">
<path d="M9.33412 11.7119C9.23796 11.7123 9.14312 11.6896 9.05753 11.6458L5.99098 10.0403L2.92443 11.6458C2.82485 11.6981 2.71258 11.7215 2.60038 11.7132C2.48818 11.705 2.38055 11.6654 2.28973 11.599C2.1989 11.5326 2.12853 11.4421 2.08661 11.3377C2.04468 11.2333 2.03289 11.1192 2.05256 11.0084L2.65385 7.62318L0.176555 5.21804C0.0992646 5.14091 0.0444358 5.04419 0.0179529 4.93826C-0.00853001 4.83233 -0.00566726 4.72118 0.0262339 4.61676C0.0610844 4.50989 0.125191 4.41494 0.21128 4.34267C0.297368 4.27039 0.40199 4.2237 0.513275 4.20788L3.9406 3.70882L5.44982 0.624225C5.49906 0.522565 5.57594 0.43683 5.67164 0.376841C5.76735 0.316851 5.87803 0.285034 5.99098 0.285034C6.10394 0.285034 6.21461 0.316851 6.31032 0.376841C6.40602 0.43683 6.4829 0.522565 6.53214 0.624225L8.0594 3.7028L11.4867 4.20187C11.598 4.21769 11.7026 4.26438 11.7887 4.33665C11.8748 4.40893 11.9389 4.50388 11.9738 4.61074C12.0057 4.71517 12.0085 4.82632 11.982 4.93225C11.9556 5.03818 11.9007 5.1349 11.8234 5.21203L9.34615 7.61717L9.94744 11.0024C9.9689 11.1151 9.95766 11.2316 9.91504 11.3382C9.87243 11.4447 9.80021 11.5369 9.70692 11.6037C9.59804 11.68 9.46694 11.7181 9.33412 11.7119ZM5.99098 8.76562C6.08737 8.76319 6.18271 8.78599 6.26757 8.83176L8.53442 10.0343L8.10149 7.50292C8.08469 7.40627 8.0918 7.30697 8.1222 7.21369C8.15259 7.12041 8.20535 7.03599 8.27586 6.96778L10.0797 5.20602L7.55432 4.83322C7.46171 4.81458 7.3748 4.77437 7.30063 4.71587C7.22646 4.65737 7.16712 4.58222 7.12741 4.4965L5.99098 2.24168L4.85455 4.4965C4.81105 4.58291 4.74734 4.65754 4.66883 4.71407C4.59032 4.77059 4.49933 4.80734 4.40359 4.82119L1.87819 5.19399L3.68205 6.95576C3.75256 7.02396 3.80532 7.10839 3.83571 7.20166C3.86611 7.29494 3.87322 7.39424 3.85642 7.4909L3.42349 9.99224L5.69034 8.78967C5.78639 8.75397 5.89047 8.74564 5.99098 8.76562Z" fill="#8F90A6"/>
</svg>
