<svg width="16" height="16" viewBox="0 0 16 16" fill="none" xmlns="http://www.w3.org/2000/svg">
<g clip-path="url(#clip0_1024_3885)">
<path d="M3.48666 7.09334C3.54263 7.16084 3.61136 7.21665 3.68892 7.25755C3.76649 7.29845 3.85136 7.32365 3.93868 7.3317C4.026 7.33975 4.11405 7.33049 4.19778 7.30446C4.28152 7.27843 4.35929 7.23614 4.42666 7.18001L7.33333 4.76V12.6667C7.33333 12.8435 7.40356 13.0131 7.52859 13.1381C7.65361 13.2631 7.82318 13.3333 7.99999 13.3333C8.1768 13.3333 8.34637 13.2631 8.4714 13.1381C8.59642 13.0131 8.66666 12.8435 8.66666 12.6667V4.76L11.5733 7.18001C11.6407 7.23604 11.7185 7.27824 11.8022 7.30421C11.886 7.33018 11.974 7.3394 12.0613 7.33135C12.1486 7.3233 12.2334 7.29814 12.311 7.2573C12.3885 7.21647 12.4573 7.16075 12.5133 7.09334C12.5694 7.02593 12.6116 6.94814 12.6375 6.86442C12.6635 6.78069 12.6727 6.69268 12.6647 6.60539C12.6566 6.5181 12.6315 6.43325 12.5906 6.35569C12.5498 6.27813 12.4941 6.20937 12.4267 6.15334L8.42666 2.82001L8.32666 2.76001L8.23999 2.71334C8.08554 2.65374 7.91444 2.65374 7.75999 2.71334L7.67333 2.76001L7.57333 2.82001L3.57333 6.15334C3.50582 6.2093 3.45002 6.27804 3.40912 6.3556C3.36822 6.43317 3.34302 6.51804 3.33497 6.60536C3.32692 6.69268 3.33617 6.78072 3.3622 6.86446C3.38823 6.94819 3.43053 7.02597 3.48666 7.09334Z" fill="#1C1C28"/>
</g>
<defs>
<clipPath id="clip0_1024_3885">
<rect width="16" height="16" fill="white"/>
</clipPath>
</defs>
</svg>
