<svg width="16" height="16" viewBox="0 0 16 16" fill="none" xmlns="http://www.w3.org/2000/svg">
<path d="M5.29209 12.1568C5.43345 12.1568 5.5483 12.1141 5.63665 12.0287C5.725 11.9433 5.76918 11.827 5.76918 11.6797V6.42298L5.71617 5.11541L6.67034 6.15793L7.598 7.17395C7.63923 7.22107 7.68929 7.2564 7.74819 7.27996C7.80709 7.30352 7.87188 7.3153 7.94256 7.3153C8.07214 7.3153 8.1811 7.27113 8.26945 7.18278C8.3578 7.09443 8.40198 6.98547 8.40198 6.85589C8.40198 6.7911 8.3902 6.7322 8.36664 6.67919C8.34308 6.62618 8.31068 6.57612 8.26945 6.529L5.68966 3.86969C5.57775 3.75189 5.44523 3.69299 5.29209 3.69299C5.15073 3.69299 5.02115 3.75189 4.90335 3.86969L2.32356 6.529C2.28233 6.57612 2.24994 6.62618 2.22638 6.67919C2.20282 6.7322 2.19104 6.7911 2.19104 6.85589C2.19104 6.98547 2.23521 7.09443 2.32356 7.18278C2.41191 7.27113 2.51793 7.3153 2.64162 7.3153C2.7123 7.3153 2.77709 7.30352 2.83599 7.27996C2.89489 7.2564 2.9479 7.22107 2.99502 7.17395L3.93151 6.15793L4.85918 5.13308L4.815 6.42298V11.6797C4.815 11.827 4.86065 11.9433 4.95195 12.0287C5.04324 12.1141 5.15662 12.1568 5.29209 12.1568ZM10.7079 12.1568C10.861 12.1568 10.9935 12.0979 11.1054 11.9801L13.6852 9.32966C13.7265 9.28254 13.7574 9.23248 13.778 9.17947C13.7986 9.12646 13.8089 9.06461 13.8089 8.99394C13.8089 8.86436 13.7662 8.75687 13.6808 8.67146C13.5954 8.58606 13.4879 8.54335 13.3583 8.54335C13.2877 8.54335 13.2229 8.55514 13.164 8.57869C13.1051 8.60225 13.055 8.63759 13.0138 8.68471L12.0861 9.69189L11.132 10.7344L11.185 9.43568V4.17008C11.185 4.02872 11.1408 3.91387 11.0524 3.82552C10.9641 3.73717 10.8492 3.69299 10.7079 3.69299C10.5665 3.69299 10.4517 3.73717 10.3633 3.82552C10.275 3.91387 10.2308 4.02872 10.2308 4.17008V9.43568L10.275 10.7256L9.3473 9.6919L8.40197 8.68472C8.36074 8.6376 8.31067 8.60226 8.25177 8.5787C8.19287 8.55514 8.12809 8.54336 8.05741 8.54336C7.92783 8.54336 7.82034 8.58606 7.73493 8.67146C7.64953 8.75687 7.60683 8.86436 7.60683 8.99394C7.60683 9.06462 7.61713 9.12646 7.63775 9.17947C7.65836 9.23248 7.69223 9.28254 7.73935 9.32966L10.3191 11.9801C10.4311 12.0979 10.5606 12.1568 10.7079 12.1568Z" fill="#1C1C28"/>
</svg>
