<svg width="32" height="24" viewBox="0 0 32 24" fill="none" xmlns="http://www.w3.org/2000/svg">
<g clip-path="url(#clip0_910_3681)">
<path d="M11.7334 16.4476L13.3588 7.30475H15.8985L14.3239 16.4476H11.7334Z" fill="#3C58BF"/>
<path d="M11.7334 16.4476L13.8159 7.30475H15.8985L14.3239 16.4476H11.7334Z" fill="#293688"/>
<path d="M7.06026 13.7048L6.80629 12.3841C6.34915 10.8603 4.87613 9.18413 3.25073 8.37143L5.53645 16.4984H8.2793L12.3936 7.35556H9.65073L7.06026 13.7048Z" fill="#3C58BF"/>
<path d="M7.06026 13.7048L6.80629 12.3841C6.34915 10.8603 4.87613 9.18413 3.25073 8.37143L5.53645 16.4984H8.2793L12.3936 7.35556H10.1587L7.06026 13.7048Z" fill="#293688"/>
<path d="M23.5175 7.40635C23.0096 7.20317 22.1969 7 21.181 7C18.6413 7 16.8128 8.26984 16.8128 10.0984C16.8128 11.4698 18.0826 12.181 19.0985 12.6381C20.1143 13.0952 20.4191 13.4 20.4191 13.8063C20.4191 14.4159 19.6064 14.7206 18.8953 14.7206C17.8794 14.7206 17.3207 14.5683 16.4572 14.2127L16.1016 14.0603L15.7461 16.1429C16.3556 16.3968 17.4731 16.6508 18.6413 16.6508C21.3334 16.6508 23.1112 15.381 23.1112 13.4508C23.1112 12.3841 22.4509 11.5714 20.927 10.9111C20.0128 10.454 19.454 10.2 19.454 9.74286C19.454 9.33651 19.9112 8.93016 20.927 8.93016C21.7905 8.93016 22.4001 9.08254 22.8572 9.28571L23.1112 9.3873L23.5175 7.40635Z" fill="#3C58BF"/>
<path d="M23.5175 7.40635C23.0096 7.20317 22.1969 7 21.181 7C18.6413 7 17.2699 8.26984 17.2699 10.0984C17.2699 11.4698 18.0826 12.181 19.0985 12.6381C20.1143 13.0952 20.4191 13.4 20.4191 13.8063C20.4191 14.4159 19.6064 14.7206 18.8953 14.7206C17.8794 14.7206 17.3207 14.5683 16.4572 14.2127L16.1016 14.0603L15.7461 16.1429C16.3556 16.3968 17.4731 16.6508 18.6413 16.6508C21.3334 16.6508 23.1112 15.381 23.1112 13.4508C23.1112 12.3841 22.4509 11.5714 20.927 10.9111C20.0128 10.454 19.454 10.2 19.454 9.74286C19.454 9.33651 19.9112 8.93016 20.927 8.93016C21.7905 8.93016 22.4001 9.08254 22.8572 9.28571L23.1112 9.3873L23.5175 7.40635Z" fill="#293688"/>
<path d="M27.8858 7.30475C27.2762 7.30475 26.8191 7.35554 26.5651 7.96507L22.7556 16.4476H25.4985L26.0064 14.9238H29.2572L29.5619 16.4476H32L29.8667 7.30475H27.8858ZM26.7175 13.4C26.8699 12.9428 27.7334 10.7079 27.7334 10.7079C27.7334 10.7079 27.9366 10.1492 28.0889 9.79364L28.2413 10.6571C28.2413 10.6571 28.7492 12.9428 28.8508 13.4508H26.7175V13.4Z" fill="#3C58BF"/>
<path d="M28.4953 7.30475C27.8858 7.30475 27.4286 7.35554 27.1746 7.96507L22.7556 16.4476H25.4985L26.0064 14.9238H29.2572L29.5619 16.4476H32L29.8667 7.30475H28.4953ZM26.7175 13.4C26.9207 12.8921 27.7334 10.7079 27.7334 10.7079C27.7334 10.7079 27.9366 10.1492 28.0889 9.79364L28.2413 10.6571C28.2413 10.6571 28.7492 12.9428 28.8508 13.4508H26.7175V13.4Z" fill="#293688"/>
<path d="M0 7.30475L0.457143 7.40634C3.70794 8.16824 5.94286 10.0984 6.80635 12.3841L5.89206 8.06665C5.73968 7.45713 5.28254 7.30475 4.72381 7.30475H0Z" fill="#FFBC00"/>
<path d="M0 7.30475C3.25079 8.06665 5.94286 10.0476 6.80635 12.3333L5.94286 8.72697C5.79048 8.11745 5.28254 7.76189 4.72381 7.76189L0 7.30475Z" fill="#F7981D"/>
<path d="M0 7.30475C3.25079 8.06665 5.94286 10.0476 6.80635 12.3333L6.19683 10.3524C6.04444 9.74284 5.84127 9.13332 5.13016 8.87935L0 7.30475Z" fill="#ED7C00"/>
<path d="M9.59993 13.4L7.87294 11.673L7.06024 13.6032L6.85707 12.3333C6.39993 10.8095 4.92691 9.13332 3.30151 8.32062L5.58723 16.4476H8.33008L9.59993 13.4Z" fill="#051244"/>
<path d="M14.3238 16.4476L12.1396 14.2127L11.7333 16.4476H14.3238Z" fill="#051244"/>
<path d="M20.165 13.2984C20.3682 13.5016 20.4698 13.654 20.419 13.8571C20.419 14.4667 19.6063 14.7714 18.8952 14.7714C17.8793 14.7714 17.3206 14.619 16.4571 14.2635L16.1015 14.1111L15.746 16.1936C16.3555 16.4476 17.473 16.7016 18.6412 16.7016C20.2666 16.7016 21.5872 16.2444 22.3491 15.4317L20.165 13.2984Z" fill="#051244"/>
<path d="M23.1111 16.4476H25.4984L26.0063 14.9238H29.2571L29.5619 16.4476H32L31.1365 12.7397L28.0889 9.79364L28.2412 10.6063C28.2412 10.6063 28.7492 12.8921 28.8508 13.4H26.7174C26.9206 12.8921 27.7333 10.7079 27.7333 10.7079C27.7333 10.7079 27.9365 10.1492 28.0889 9.79364" fill="#051244"/>
</g>
<defs>
<clipPath id="clip0_910_3681">
<rect width="32" height="24" fill="white"/>
</clipPath>
</defs>
</svg>
